<svg width="24" height="24" viewBox="0 0 24 24" fill="none" xmlns="http://www.w3.org/2000/svg">
<path fill-rule="evenodd" clip-rule="evenodd" d="M5.23808 8.78837C5.28976 8.7652 7.33402 8.77946 7.33402 8.77946C7.82237 8.77946 8.21981 9.0664 8.37843 9.49236C8.46042 9.71158 8.4426 9.94862 8.4426 10.2017V14.8C8.4426 15.1671 8.32854 15.4095 8.1414 15.5948C7.89723 15.8372 7.67979 15.9228 7.29304 15.9228L6.04188 15.921L6.0401 9.6385C6.0401 9.38364 6.09892 9.41929 5.71217 9.15195C5.59454 9.07174 5.28085 8.85966 5.24699 8.80975C5.2452 8.80262 5.24164 8.79193 5.23808 8.78837ZM12 0C18.6283 0 24 5.37353 24 12C24 18.6283 18.6265 24 12 24C5.37175 24 4.43223e-07 18.6265 4.43223e-07 12C-0.00178182 5.37353 5.37175 0 12 0ZM12 0.917872C15.8087 0.917872 19.1683 2.83915 21.1626 5.76385C20.9203 5.78702 20.0505 5.76921 19.7564 5.76921C19.3732 5.76921 19.4428 5.77099 19.3091 6.06862C19.2752 6.14348 19.2289 6.23259 19.1897 6.32527C19.154 6.40726 19.0988 6.50528 19.0649 6.59083C18.9847 6.5837 18.9491 6.53914 18.892 6.49458C18.8404 6.45537 18.7958 6.42151 18.7459 6.38587L18.1542 5.95634C18.0312 5.86901 17.9635 5.78168 17.7977 5.78168H15.2972C15.1956 5.78168 15.1493 5.79237 15.0833 5.84406L13.6433 6.89025C13.5488 6.96867 13.4187 7.04887 13.3224 7.12194C13.2173 7.20214 13.1032 7.27878 13.0034 7.35542C12.7254 7.56751 12.761 7.50691 12.761 7.92753V17.0153C12.761 17.1882 12.9197 17.247 13.0426 17.3343C13.1531 17.411 13.2815 17.5322 13.3973 17.5963C13.5256 17.6676 13.6272 17.7728 13.7466 17.8512C14.0229 18.033 15.0405 18.8243 15.1742 18.8724C15.2687 18.9063 15.6465 18.8867 15.7784 18.8867C16.2739 18.8867 20.5781 18.8653 20.6725 18.8974C20.6725 18.8992 20.6743 18.901 20.6743 18.901C18.6443 21.4496 15.5129 23.0839 12.0018 23.0839C8.48715 23.0839 5.35571 21.4478 3.32571 18.8974V18.8956C3.46472 18.876 3.6073 18.8867 3.74632 18.8867H9.16442C9.40681 18.8867 9.42998 18.8653 9.59038 18.7477L11.615 17.2755C11.738 17.1935 11.8004 17.165 11.8004 16.9904V7.64771C11.8004 7.48909 11.6756 7.43206 11.5544 7.35364C11.5152 7.32869 11.4493 7.27522 11.4029 7.23779L10.289 6.42864C10.1785 6.35022 10.0823 6.28249 9.96644 6.19873L9.49413 5.85297C9.38898 5.7692 9.24462 5.78524 9.11095 5.78524L2.84271 5.78346C2.84093 5.77811 2.83915 5.77277 2.83915 5.76742C4.83173 2.83916 8.19129 0.917872 12 0.917872ZM21.9664 7.15046C22.6811 8.61549 23.0821 10.2623 23.0821 12.0018C23.0821 13.9676 22.5706 15.8123 21.6724 17.4128C21.6652 17.4128 21.6563 17.411 21.6474 17.4092C21.6171 17.2327 21.6563 14.3544 21.6367 14.276C21.6278 14.2403 21.6171 14.2278 21.5833 14.2118C21.5458 14.194 18.5766 14.1851 18.5338 14.2207C18.4803 14.2653 18.5071 14.9443 18.5071 15.0548C18.5071 15.2883 18.532 15.716 18.5017 15.9246C18.3449 15.937 17.4324 15.9299 17.2131 15.9281C16.8299 15.9246 16.5359 15.7535 16.3434 15.5075C16.0992 15.1974 16.1117 14.9194 16.1117 14.4489V9.60821C16.1117 9.48701 16.1331 9.41394 16.0511 9.34622L15.315 8.78658C15.6305 8.77767 18.4286 8.76519 18.4946 8.79728C18.5124 8.8151 18.5071 8.92381 18.5071 8.94876V10.4673C18.5053 10.6188 18.5106 10.6455 18.6657 10.6437H20.7099C20.8204 10.6437 21.3141 10.6651 21.3623 10.6205C21.4318 10.5564 21.4407 10.1286 21.5031 9.91832C21.5262 9.83633 21.6599 8.80441 21.7098 8.58875L21.8952 7.41423C21.9005 7.34829 21.9112 7.33047 21.9183 7.27878C21.9255 7.22531 21.9148 7.15759 21.9647 7.14868C21.9647 7.15046 21.9664 7.15046 21.9664 7.15046ZM2.65379 17.9599C1.55413 16.2382 0.916078 14.194 0.916078 12C0.916078 10.7007 1.14064 9.45493 1.55056 8.29646C1.65037 8.31785 1.80365 8.46221 1.9284 8.5442L2.60745 9.03609C2.64488 9.06817 2.67162 9.08244 2.68231 9.13591C2.70192 9.24998 2.68587 16.1616 2.68587 17.2826C2.68587 17.4092 2.71439 17.8815 2.66983 17.9581C2.66449 17.9599 2.65914 17.9599 2.65379 17.9599Z" fill="#929292"/>
</svg>
