<svg width="603" height="24" viewBox="0 0 603 24" fill="none" xmlns="http://www.w3.org/2000/svg">
<g clip-path="url(#clip0_8_161)">
<path fill-rule="evenodd" clip-rule="evenodd" d="M5.23808 8.78837C5.28976 8.7652 7.33402 8.77946 7.33402 8.77946C7.82237 8.77946 8.21981 9.0664 8.37843 9.49236C8.46042 9.71158 8.4426 9.94862 8.4426 10.2017V14.8C8.4426 15.1671 8.32854 15.4095 8.1414 15.5948C7.89723 15.8372 7.67979 15.9228 7.29304 15.9228L6.04188 15.921L6.0401 9.6385C6.0401 9.38364 6.09892 9.41929 5.71217 9.15195C5.59454 9.07174 5.28085 8.85966 5.24699 8.80975C5.2452 8.80262 5.24164 8.79193 5.23808 8.78837ZM12 0C18.6283 0 24 5.37353 24 12C24 18.6283 18.6265 24 12 24C5.37175 24 4.43223e-07 18.6265 4.43223e-07 12C-0.00178182 5.37353 5.37175 0 12 0ZM12 0.917872C15.8087 0.917872 19.1683 2.83915 21.1626 5.76385C20.9203 5.78702 20.0505 5.76921 19.7564 5.76921C19.3732 5.76921 19.4428 5.77099 19.3091 6.06862C19.2752 6.14348 19.2289 6.23259 19.1897 6.32527C19.154 6.40726 19.0988 6.50528 19.0649 6.59083C18.9847 6.5837 18.9491 6.53914 18.892 6.49458C18.8404 6.45537 18.7958 6.42151 18.7459 6.38587L18.1542 5.95634C18.0312 5.86901 17.9635 5.78168 17.7977 5.78168H15.2972C15.1956 5.78168 15.1493 5.79237 15.0833 5.84406L13.6433 6.89025C13.5488 6.96867 13.4187 7.04887 13.3224 7.12194C13.2173 7.20214 13.1032 7.27878 13.0034 7.35542C12.7254 7.56751 12.761 7.50691 12.761 7.92753V17.0153C12.761 17.1882 12.9197 17.247 13.0426 17.3343C13.1531 17.411 13.2815 17.5322 13.3973 17.5963C13.5256 17.6676 13.6272 17.7728 13.7466 17.8512C14.0229 18.033 15.0405 18.8243 15.1742 18.8724C15.2687 18.9063 15.6465 18.8867 15.7784 18.8867C16.2739 18.8867 20.5781 18.8653 20.6725 18.8974C20.6725 18.8992 20.6743 18.901 20.6743 18.901C18.6443 21.4496 15.5129 23.0839 12.0018 23.0839C8.48715 23.0839 5.35571 21.4478 3.32571 18.8974V18.8956C3.46472 18.876 3.6073 18.8867 3.74632 18.8867H9.16442C9.40681 18.8867 9.42998 18.8653 9.59038 18.7477L11.615 17.2755C11.738 17.1935 11.8004 17.165 11.8004 16.9904V7.64771C11.8004 7.48909 11.6756 7.43206 11.5544 7.35364C11.5152 7.32869 11.4493 7.27522 11.4029 7.23779L10.289 6.42864C10.1785 6.35022 10.0823 6.28249 9.96644 6.19873L9.49413 5.85297C9.38898 5.7692 9.24462 5.78524 9.11095 5.78524L2.84271 5.78346C2.84093 5.77811 2.83915 5.77277 2.83915 5.76742C4.83173 2.83916 8.19129 0.917872 12 0.917872ZM21.9664 7.15046C22.6811 8.61549 23.0821 10.2623 23.0821 12.0018C23.0821 13.9676 22.5706 15.8123 21.6724 17.4128C21.6652 17.4128 21.6563 17.411 21.6474 17.4092C21.6171 17.2327 21.6563 14.3544 21.6367 14.276C21.6278 14.2403 21.6171 14.2278 21.5833 14.2118C21.5458 14.194 18.5766 14.1851 18.5338 14.2207C18.4803 14.2653 18.5071 14.9443 18.5071 15.0548C18.5071 15.2883 18.532 15.716 18.5017 15.9246C18.3449 15.937 17.4324 15.9299 17.2131 15.9281C16.8299 15.9246 16.5359 15.7535 16.3434 15.5075C16.0992 15.1974 16.1117 14.9194 16.1117 14.4489V9.60821C16.1117 9.48701 16.1331 9.41394 16.0511 9.34622L15.315 8.78658C15.6305 8.77767 18.4286 8.76519 18.4946 8.79728C18.5124 8.8151 18.5071 8.92381 18.5071 8.94876V10.4673C18.5053 10.6188 18.5106 10.6455 18.6657 10.6437H20.7099C20.8204 10.6437 21.3141 10.6651 21.3623 10.6205C21.4318 10.5564 21.4407 10.1286 21.5031 9.91832C21.5262 9.83633 21.6599 8.80441 21.7098 8.58875L21.8952 7.41423C21.9005 7.34829 21.9112 7.33047 21.9183 7.27878C21.9255 7.22531 21.9148 7.15759 21.9647 7.14868C21.9647 7.15046 21.9664 7.15046 21.9664 7.15046ZM2.65379 17.9599C1.55413 16.2382 0.916078 14.194 0.916078 12C0.916078 10.7007 1.14064 9.45493 1.55056 8.29646C1.65037 8.31785 1.80365 8.46221 1.9284 8.5442L2.60745 9.03609C2.64488 9.06817 2.67162 9.08244 2.68231 9.13591C2.70192 9.24998 2.68587 16.1616 2.68587 17.2826C2.68587 17.4092 2.71439 17.8815 2.66983 17.9581C2.66449 17.9599 2.65914 17.9599 2.65379 17.9599Z" fill="#929292"/>
</g>
<path fill-rule="evenodd" clip-rule="evenodd" d="M54.7411 8.02529C54.9723 6.73134 54.1093 5.71539 53.1085 4.9749C51.7071 3.94252 50.12 3.32714 48.4874 2.84949V19.9173C49.2115 19.2854 49.9355 18.5765 50.628 17.8538C52.1064 16.2212 53.4774 14.557 54.0473 12.5554C54.2786 11.6468 54.1547 10.6145 53.3852 9.99781C54.0486 9.4734 54.6488 8.82643 54.7411 8.02529ZM51.9232 13.9252C51.4152 14.8489 50.7215 15.6967 49.9052 16.4827L49.89 11.6001C50.4448 11.1995 51.0146 10.8457 51.7071 10.7838C51.9838 10.7838 52.2303 10.876 52.416 11.0921C53.0314 12.0613 52.3073 13.0773 51.9232 13.9252ZM53.3246 7.63988C53.1856 8.4107 52.3389 8.85676 51.7374 9.18025C51.1372 9.48857 50.5206 9.73497 49.8888 9.96622V4.9749C50.8592 5.26806 51.7374 5.76088 52.5689 6.34594C52.9543 6.66942 53.4787 7.06999 53.3246 7.63988Z" fill="#929292"/>
<path fill-rule="evenodd" clip-rule="evenodd" d="M47.225 19.7934V2.7876L45.854 3.49649V12.6161C45.7921 12.8776 45.9778 13.2782 45.6847 13.402C45.6076 13.4172 45.5457 13.3869 45.5154 13.325C44.9303 11.1225 44.6839 8.79613 44.5752 6.40914L44.5285 4.32922L43.2193 5.29968V5.85441C43.2964 8.05691 43.4506 10.2139 43.8663 12.2774L43.3432 12.8625C43.1435 12.5857 43.0197 12.2926 42.8807 11.9994C42.2186 10.243 41.9722 8.31848 41.8799 6.3308L40.7401 7.17742C40.8475 10.1962 41.4174 13.0457 43.2509 15.3101C43.6048 14.9095 43.9598 14.4938 44.3137 14.1084C44.4981 14.9247 44.7597 15.7107 45.068 16.4802C45.576 17.668 46.1459 18.8697 47.225 19.7934Z" fill="#929292"/>
<path fill-rule="evenodd" clip-rule="evenodd" d="M57.7144 5.02164L55.666 4.51366L55.2958 3.12747L53.2007 2.63466L52.7698 1.12462L47.8253 0L42.9729 1.12462L42.542 2.63466L40.447 3.12747C40.308 3.60512 40.1854 4.0676 40.0616 4.52883L38.0132 5.02164C37.8591 9.38114 39.0608 13.2162 41.2329 16.6356C42.82 19.0845 45.207 21.6724 47.8253 22.9512C49.5969 22.1046 51.1675 20.6868 52.5853 19.0997C56.0199 15.1268 57.8989 10.4742 57.7144 5.02164ZM51.6768 18.2075C50.5522 19.4712 49.2885 20.7184 47.872 21.4424C46.5161 20.7651 45.3309 19.5937 44.2517 18.4085C41.4477 15.1281 39.5839 11.4611 39.2768 7.16348C39.2465 6.80967 39.2301 6.46975 39.2465 6.10077L40.9865 5.7002L41.3871 4.26726L43.5277 3.75928L43.5428 3.71253L43.9282 2.23409L47.8101 1.32554L51.8145 2.23409L52.1999 3.74412L54.3721 4.26726L54.7423 5.7002L56.4988 6.10077C56.4507 10.7825 54.5869 14.7098 51.6768 18.2075Z" fill="#929292"/>
<path fill-rule="evenodd" clip-rule="evenodd" d="M52.3225 22.7819C52.5537 22.7667 52.7079 22.6429 52.7079 22.3813C52.7079 22.0882 52.5234 21.9504 52.1683 21.9504H51.6136V23.4289H51.86V22.7971H52.0913L52.4767 23.4289H52.7382L52.3225 22.7819ZM51.8613 22.5974V22.1501H52.1544C52.2934 22.1501 52.4628 22.1804 52.4628 22.3662C52.4628 22.5658 52.3086 22.5974 52.1241 22.5974H51.8613Z" fill="#929292"/>
<path fill-rule="evenodd" clip-rule="evenodd" d="M52.138 21.4728C51.4443 21.4728 50.8744 22.0427 50.8744 22.7364C50.8744 23.4301 51.4443 24 52.138 24C52.8317 24 53.4016 23.4301 53.4016 22.7364C53.4016 22.0427 52.8317 21.4728 52.138 21.4728ZM52.138 23.8762C51.5062 23.8762 50.9982 23.3682 50.9982 22.7364C50.9982 22.1046 51.5062 21.5966 52.138 21.5966C52.7698 21.5966 53.2778 22.1046 53.2778 22.7364C53.2778 23.3669 52.7698 23.8762 52.138 23.8762Z" fill="#929292"/>
<path d="M74.52 15V8.76H72.27V8H77.61V8.76H75.36V15H74.52ZM78.7089 15V8H79.4989V10.89H79.6389C79.7056 10.7433 79.8056 10.6067 79.9389 10.48C80.0789 10.3467 80.2556 10.2367 80.4689 10.15C80.6889 10.0633 80.9656 10.02 81.2989 10.02C81.6656 10.02 81.9922 10.1 82.2789 10.26C82.5722 10.4133 82.8056 10.64 82.9789 10.94C83.1522 11.2333 83.2389 11.6 83.2389 12.04V15H82.4489V12.1C82.4489 11.6133 82.3256 11.26 82.0789 11.04C81.8389 10.82 81.5122 10.71 81.0989 10.71C80.6256 10.71 80.2389 10.8633 79.9389 11.17C79.6456 11.4767 79.4989 11.9333 79.4989 12.54V15H78.7089ZM87.0817 15.14C86.5884 15.14 86.1551 15.0367 85.7817 14.83C85.4084 14.6167 85.1184 14.32 84.9117 13.94C84.7051 13.56 84.6017 13.12 84.6017 12.62V12.5C84.6017 11.9933 84.7051 11.55 84.9117 11.17C85.1184 10.79 85.4051 10.4967 85.7717 10.29C86.1384 10.0767 86.5584 9.97 87.0317 9.97C87.4917 9.97 87.8984 10.07 88.2517 10.27C88.6051 10.4633 88.8817 10.7433 89.0817 11.11C89.2817 11.4767 89.3817 11.9067 89.3817 12.4V12.76H85.3917C85.4117 13.2867 85.5817 13.7 85.9017 14C86.2217 14.2933 86.6217 14.44 87.1017 14.44C87.5217 14.44 87.8451 14.3433 88.0717 14.15C88.2984 13.9567 88.4717 13.7267 88.5917 13.46L89.2717 13.79C89.1717 13.9967 89.0317 14.2033 88.8517 14.41C88.6784 14.6167 88.4484 14.79 88.1617 14.93C87.8817 15.07 87.5217 15.14 87.0817 15.14ZM85.4017 12.11H88.5817C88.5551 11.6567 88.3984 11.3033 88.1117 11.05C87.8317 10.7967 87.4717 10.67 87.0317 10.67C86.5851 10.67 86.2184 10.7967 85.9317 11.05C85.6451 11.3033 85.4684 11.6567 85.4017 12.11ZM92.968 15V14.25H93.948V8.75H92.968V8H95.698C96.618 8 97.328 8.23333 97.828 8.7C98.3347 9.16667 98.588 9.88333 98.588 10.85V12.15C98.588 13.1233 98.3347 13.8433 97.828 14.31C97.328 14.77 96.618 15 95.698 15H92.968ZM94.788 14.24H95.698C96.378 14.24 96.8914 14.0733 97.238 13.74C97.5847 13.4067 97.758 12.89 97.758 12.19V10.82C97.758 10.1067 97.5847 9.58667 97.238 9.26C96.8914 8.93333 96.378 8.77 95.698 8.77H94.788V14.24ZM101.459 15.14C101.119 15.14 100.809 15.08 100.529 14.96C100.249 14.84 100.029 14.6667 99.8689 14.44C99.7089 14.2133 99.6289 13.9367 99.6289 13.61C99.6289 13.2767 99.7089 13.0033 99.8689 12.79C100.029 12.57 100.249 12.4067 100.529 12.3C100.809 12.1867 101.122 12.13 101.469 12.13H103.119V11.77C103.119 11.4233 103.016 11.15 102.809 10.95C102.609 10.75 102.309 10.65 101.909 10.65C101.516 10.65 101.209 10.7467 100.989 10.94C100.769 11.1267 100.619 11.38 100.539 11.7L99.7989 11.46C99.8789 11.1867 100.006 10.94 100.179 10.72C100.352 10.4933 100.582 10.3133 100.869 10.18C101.162 10.04 101.512 9.97 101.919 9.97C102.546 9.97 103.032 10.1333 103.379 10.46C103.726 10.78 103.899 11.2333 103.899 11.82V14.03C103.899 14.23 103.992 14.33 104.179 14.33H104.629V15H103.939C103.719 15 103.542 14.94 103.409 14.82C103.276 14.6933 103.209 14.5267 103.209 14.32V14.27H103.089C103.016 14.3967 102.916 14.53 102.789 14.67C102.669 14.8033 102.502 14.9133 102.289 15C102.076 15.0933 101.799 15.14 101.459 15.14ZM101.549 14.46C102.016 14.46 102.392 14.3233 102.679 14.05C102.972 13.77 103.119 13.38 103.119 12.88V12.77H101.499C101.186 12.77 100.926 12.84 100.719 12.98C100.519 13.1133 100.419 13.3167 100.419 13.59C100.419 13.8633 100.522 14.0767 100.729 14.23C100.942 14.3833 101.216 14.46 101.549 14.46ZM105.711 15V10.11H106.481V10.71H106.621C106.708 10.4967 106.841 10.34 107.021 10.24C107.201 10.14 107.438 10.09 107.731 10.09H108.311V10.81H107.681C107.328 10.81 107.041 10.91 106.821 11.11C106.608 11.3033 106.501 11.6067 106.501 12.02V15H105.711ZM109.48 15V8H110.27V12.12H110.41L112.65 10.11H113.75L111.04 12.49L113.83 15H112.74L110.41 12.87H110.27V15H109.48ZM117.4 15V8H118.24V11.05H118.38L121.34 8H122.46L119.05 11.46L122.58 15H121.43L118.38 11.89H118.24V15H117.4ZM123.533 15V10.11H124.303V10.94H124.443C124.55 10.7067 124.73 10.4967 124.983 10.31C125.243 10.1167 125.623 10.02 126.123 10.02C126.49 10.02 126.816 10.0967 127.103 10.25C127.396 10.4033 127.63 10.63 127.803 10.93C127.976 11.23 128.063 11.6 128.063 12.04V15H127.273V12.1C127.273 11.6133 127.15 11.26 126.903 11.04C126.663 10.82 126.336 10.71 125.923 10.71C125.45 10.71 125.063 10.8633 124.763 11.17C124.47 11.4767 124.323 11.9333 124.323 12.54V15H123.533ZM129.666 15V10.11H130.456V15H129.666ZM130.066 9.35C129.893 9.35 129.746 9.29333 129.626 9.18C129.513 9.06667 129.456 8.92333 129.456 8.75C129.456 8.57 129.513 8.42333 129.626 8.31C129.746 8.19667 129.893 8.14 130.066 8.14C130.239 8.14 130.383 8.19667 130.496 8.31C130.609 8.42333 130.666 8.57 130.666 8.75C130.666 8.92333 130.609 9.06667 130.496 9.18C130.383 9.29333 130.239 9.35 130.066 9.35ZM131.877 12.58V12.44C131.877 11.9267 131.98 11.4867 132.187 11.12C132.394 10.7533 132.674 10.47 133.027 10.27C133.38 10.07 133.767 9.97 134.187 9.97C134.7 9.97 135.094 10.07 135.367 10.27C135.647 10.4633 135.854 10.68 135.987 10.92H136.127V10.11H136.877V16.14C136.877 16.4067 136.804 16.6167 136.657 16.77C136.51 16.9233 136.297 17 136.017 17H132.697V16.3H135.807C136.007 16.3 136.107 16.2 136.107 16V14.14H135.967C135.887 14.2867 135.774 14.43 135.627 14.57C135.48 14.71 135.29 14.8267 135.057 14.92C134.824 15.0067 134.534 15.05 134.187 15.05C133.767 15.05 133.38 14.95 133.027 14.75C132.674 14.55 132.394 14.2667 132.187 13.9C131.98 13.5267 131.877 13.0867 131.877 12.58ZM134.397 14.35C134.904 14.35 135.314 14.19 135.627 13.87C135.947 13.55 136.107 13.11 136.107 12.55V12.47C136.107 11.9033 135.947 11.4633 135.627 11.15C135.314 10.83 134.904 10.67 134.397 10.67C133.897 10.67 133.484 10.83 133.157 11.15C132.837 11.4633 132.677 11.9033 132.677 12.47V12.55C132.677 13.11 132.837 13.55 133.157 13.87C133.484 14.19 133.897 14.35 134.397 14.35ZM138.533 15V8H139.323V10.89H139.463C139.53 10.7433 139.63 10.6067 139.763 10.48C139.903 10.3467 140.08 10.2367 140.293 10.15C140.513 10.0633 140.79 10.02 141.123 10.02C141.49 10.02 141.816 10.1 142.103 10.26C142.396 10.4133 142.63 10.64 142.803 10.94C142.976 11.2333 143.063 11.6 143.063 12.04V15H142.273V12.1C142.273 11.6133 142.15 11.26 141.903 11.04C141.663 10.82 141.336 10.71 140.923 10.71C140.45 10.71 140.063 10.8633 139.763 11.17C139.47 11.4767 139.323 11.9333 139.323 12.54V15H138.533ZM146.329 15C146.049 15 145.833 14.9233 145.679 14.77C145.533 14.6167 145.459 14.4067 145.459 14.14V10.8H143.989V10.11H145.459V8.37H146.249V10.11H147.849V10.8H146.249V14.02C146.249 14.22 146.346 14.32 146.539 14.32H147.629V15H146.329ZM153.124 15V8.76H150.874V8H156.214V8.76H153.964V15H153.124ZM156.551 15V10.11H157.321V10.71H157.461C157.547 10.4967 157.681 10.34 157.861 10.24C158.041 10.14 158.277 10.09 158.571 10.09H159.151V10.81H158.521C158.167 10.81 157.881 10.91 157.661 11.11C157.447 11.3033 157.341 11.6067 157.341 12.02V15H156.551ZM160.32 15V10.11H161.11V15H160.32ZM160.72 9.35C160.547 9.35 160.4 9.29333 160.28 9.18C160.167 9.06667 160.11 8.92333 160.11 8.75C160.11 8.57 160.167 8.42333 160.28 8.31C160.4 8.19667 160.547 8.14 160.72 8.14C160.894 8.14 161.037 8.19667 161.15 8.31C161.264 8.42333 161.32 8.57 161.32 8.75C161.32 8.92333 161.264 9.06667 161.15 9.18C161.037 9.29333 160.894 9.35 160.72 9.35ZM162.771 15V8H163.561V15H162.771ZM167.483 15.14C166.989 15.14 166.553 15.0367 166.173 14.83C165.799 14.6233 165.506 14.3333 165.293 13.96C165.086 13.58 164.983 13.1333 164.983 12.62V12.49C164.983 11.9833 165.086 11.54 165.293 11.16C165.506 10.78 165.799 10.4867 166.173 10.28C166.553 10.0733 166.989 9.97 167.483 9.97C167.976 9.97 168.409 10.0733 168.783 10.28C169.163 10.4867 169.456 10.78 169.663 11.16C169.876 11.54 169.983 11.9833 169.983 12.49V12.62C169.983 13.1333 169.876 13.58 169.663 13.96C169.456 14.3333 169.163 14.6233 168.783 14.83C168.409 15.0367 167.976 15.14 167.483 15.14ZM167.483 14.43C168.003 14.43 168.416 14.2667 168.723 13.94C169.036 13.6067 169.193 13.16 169.193 12.6V12.51C169.193 11.95 169.036 11.5067 168.723 11.18C168.416 10.8467 168.003 10.68 167.483 10.68C166.969 10.68 166.556 10.8467 166.243 11.18C165.929 11.5067 165.773 11.95 165.773 12.51V12.6C165.773 13.16 165.929 13.6067 166.243 13.94C166.556 14.2667 166.969 14.43 167.483 14.43ZM171.164 12.58V12.44C171.164 11.9267 171.268 11.4867 171.474 11.12C171.681 10.7533 171.961 10.47 172.314 10.27C172.668 10.07 173.054 9.97 173.474 9.97C173.988 9.97 174.381 10.07 174.654 10.27C174.934 10.4633 175.141 10.68 175.274 10.92H175.414V10.11H176.164V16.14C176.164 16.4067 176.091 16.6167 175.944 16.77C175.798 16.9233 175.584 17 175.304 17H171.984V16.3H175.094C175.294 16.3 175.394 16.2 175.394 16V14.14H175.254C175.174 14.2867 175.061 14.43 174.914 14.57C174.768 14.71 174.578 14.8267 174.344 14.92C174.111 15.0067 173.821 15.05 173.474 15.05C173.054 15.05 172.668 14.95 172.314 14.75C171.961 14.55 171.681 14.2667 171.474 13.9C171.268 13.5267 171.164 13.0867 171.164 12.58ZM173.684 14.35C174.191 14.35 174.601 14.19 174.914 13.87C175.234 13.55 175.394 13.11 175.394 12.55V12.47C175.394 11.9033 175.234 11.4633 174.914 11.15C174.601 10.83 174.191 10.67 173.684 10.67C173.184 10.67 172.771 10.83 172.444 11.15C172.124 11.4633 171.964 11.9033 171.964 12.47V12.55C171.964 13.11 172.124 13.55 172.444 13.87C172.771 14.19 173.184 14.35 173.684 14.35ZM178.41 17V16.3H181.21C181.404 16.3 181.5 16.2 181.5 16V14.22H181.36C181.294 14.36 181.19 14.5 181.05 14.64C180.917 14.7733 180.74 14.8833 180.52 14.97C180.3 15.05 180.024 15.09 179.69 15.09C179.337 15.09 179.01 15.0133 178.71 14.86C178.417 14.7067 178.184 14.48 178.01 14.18C177.844 13.88 177.76 13.5133 177.76 13.08V10.11H178.55V13.02C178.55 13.5 178.67 13.85 178.91 14.07C179.157 14.29 179.487 14.4 179.9 14.4C180.367 14.4 180.75 14.2467 181.05 13.94C181.35 13.6333 181.5 13.1767 181.5 12.57V10.11H182.29V16.14C182.29 16.4067 182.214 16.6167 182.06 16.77C181.914 16.9233 181.697 17 181.41 17H178.41ZM186.512 15V10.11H187.302V15H186.512ZM186.912 9.35C186.738 9.35 186.592 9.29333 186.472 9.18C186.358 9.06667 186.302 8.92333 186.302 8.75C186.302 8.57 186.358 8.42333 186.472 8.31C186.592 8.19667 186.738 8.14 186.912 8.14C187.085 8.14 187.228 8.19667 187.342 8.31C187.455 8.42333 187.512 8.57 187.512 8.75C187.512 8.92333 187.455 9.06667 187.342 9.18C187.228 9.29333 187.085 9.35 186.912 9.35ZM190.933 15.14C190.326 15.14 189.813 15 189.393 14.72C188.979 14.44 188.729 13.9967 188.643 13.39L189.393 13.22C189.446 13.54 189.546 13.7933 189.693 13.98C189.839 14.16 190.019 14.29 190.233 14.37C190.453 14.4433 190.686 14.48 190.933 14.48C191.299 14.48 191.589 14.4067 191.803 14.26C192.016 14.1133 192.123 13.9167 192.123 13.67C192.123 13.4167 192.019 13.24 191.813 13.14C191.613 13.0333 191.336 12.9467 190.983 12.88L190.573 12.81C190.259 12.7567 189.973 12.6733 189.713 12.56C189.453 12.4467 189.246 12.2933 189.093 12.1C188.939 11.9067 188.863 11.6633 188.863 11.37C188.863 10.93 189.033 10.5867 189.373 10.34C189.713 10.0933 190.163 9.97 190.723 9.97C191.276 9.97 191.723 10.0967 192.063 10.35C192.409 10.5967 192.633 10.9467 192.733 11.4L191.993 11.59C191.933 11.2367 191.789 10.99 191.563 10.85C191.336 10.7033 191.056 10.63 190.723 10.63C190.389 10.63 190.126 10.6933 189.933 10.82C189.739 10.94 189.643 11.12 189.643 11.36C189.643 11.5933 189.733 11.7667 189.913 11.88C190.099 11.9867 190.346 12.0667 190.653 12.12L191.063 12.19C191.409 12.25 191.719 12.3333 191.993 12.44C192.273 12.54 192.493 12.6867 192.653 12.88C192.819 13.0733 192.903 13.3267 192.903 13.64C192.903 14.12 192.723 14.49 192.363 14.75C192.009 15.01 191.533 15.14 190.933 15.14ZM198.305 15.14C197.965 15.14 197.655 15.08 197.375 14.96C197.095 14.84 196.875 14.6667 196.715 14.44C196.555 14.2133 196.475 13.9367 196.475 13.61C196.475 13.2767 196.555 13.0033 196.715 12.79C196.875 12.57 197.095 12.4067 197.375 12.3C197.655 12.1867 197.968 12.13 198.315 12.13H199.965V11.77C199.965 11.4233 199.861 11.15 199.655 10.95C199.455 10.75 199.155 10.65 198.755 10.65C198.361 10.65 198.055 10.7467 197.835 10.94C197.615 11.1267 197.465 11.38 197.385 11.7L196.645 11.46C196.725 11.1867 196.851 10.94 197.025 10.72C197.198 10.4933 197.428 10.3133 197.715 10.18C198.008 10.04 198.358 9.97 198.765 9.97C199.391 9.97 199.878 10.1333 200.225 10.46C200.571 10.78 200.745 11.2333 200.745 11.82V14.03C200.745 14.23 200.838 14.33 201.025 14.33H201.475V15H200.785C200.565 15 200.388 14.94 200.255 14.82C200.121 14.6933 200.055 14.5267 200.055 14.32V14.27H199.935C199.861 14.3967 199.761 14.53 199.635 14.67C199.515 14.8033 199.348 14.9133 199.135 15C198.921 15.0933 198.645 15.14 198.305 15.14ZM198.395 14.46C198.861 14.46 199.238 14.3233 199.525 14.05C199.818 13.77 199.965 13.38 199.965 12.88V12.77H198.345C198.031 12.77 197.771 12.84 197.565 12.98C197.365 13.1133 197.265 13.3167 197.265 13.59C197.265 13.8633 197.368 14.0767 197.575 14.23C197.788 14.3833 198.061 14.46 198.395 14.46ZM204.765 15V14.25H205.745V8.75H204.765V8H208.275C208.682 8 209.042 8.07333 209.355 8.22C209.675 8.36667 209.922 8.57333 210.095 8.84C210.275 9.1 210.365 9.40667 210.365 9.76V9.84C210.365 10.1667 210.302 10.4367 210.175 10.65C210.048 10.8567 209.898 11.02 209.725 11.14C209.552 11.2533 209.382 11.3367 209.215 11.39V11.53C209.382 11.57 209.555 11.65 209.735 11.77C209.915 11.8833 210.065 12.0467 210.185 12.26C210.312 12.4733 210.375 12.7433 210.375 13.07V13.17C210.375 13.55 210.282 13.88 210.095 14.16C209.915 14.4333 209.665 14.6433 209.345 14.79C209.032 14.93 208.672 15 208.265 15H204.765ZM206.585 14.24H208.175C208.615 14.24 208.952 14.1367 209.185 13.93C209.418 13.7233 209.535 13.4433 209.535 13.09V13C209.535 12.6467 209.418 12.3667 209.185 12.16C208.952 11.9533 208.615 11.85 208.175 11.85H206.585V14.24ZM206.585 11.09H208.205C208.605 11.09 208.925 10.99 209.165 10.79C209.405 10.5833 209.525 10.3133 209.525 9.98V9.88C209.525 9.54 209.405 9.27 209.165 9.07C208.932 8.86333 208.612 8.76 208.205 8.76H206.585V11.09ZM211.736 15V10.11H212.506V10.71H212.646C212.733 10.4967 212.866 10.34 213.046 10.24C213.226 10.14 213.463 10.09 213.756 10.09H214.336V10.81H213.706C213.353 10.81 213.066 10.91 212.846 11.11C212.633 11.3033 212.526 11.6067 212.526 12.02V15H211.736ZM215.506 15V10.11H216.296V15H215.506ZM215.906 9.35C215.732 9.35 215.586 9.29333 215.466 9.18C215.352 9.06667 215.296 8.92333 215.296 8.75C215.296 8.57 215.352 8.42333 215.466 8.31C215.586 8.19667 215.732 8.14 215.906 8.14C216.079 8.14 216.222 8.19667 216.336 8.31C216.449 8.42333 216.506 8.57 216.506 8.75C216.506 8.92333 216.449 9.06667 216.336 9.18C216.222 9.29333 216.079 9.35 215.906 9.35ZM219.757 15C219.477 15 219.26 14.9233 219.107 14.77C218.96 14.6167 218.887 14.4067 218.887 14.14V10.8H217.417V10.11H218.887V8.37H219.677V10.11H221.277V10.8H219.677V14.02C219.677 14.22 219.774 14.32 219.967 14.32H221.057V15H219.757ZM222.557 15V10.11H223.347V15H222.557ZM222.957 9.35C222.783 9.35 222.637 9.29333 222.517 9.18C222.403 9.06667 222.347 8.92333 222.347 8.75C222.347 8.57 222.403 8.42333 222.517 8.31C222.637 8.19667 222.783 8.14 222.957 8.14C223.13 8.14 223.273 8.19667 223.387 8.31C223.5 8.42333 223.557 8.57 223.557 8.75C223.557 8.92333 223.5 9.06667 223.387 9.18C223.273 9.29333 223.13 9.35 222.957 9.35ZM226.978 15.14C226.371 15.14 225.858 15 225.438 14.72C225.024 14.44 224.774 13.9967 224.688 13.39L225.438 13.22C225.491 13.54 225.591 13.7933 225.738 13.98C225.884 14.16 226.064 14.29 226.278 14.37C226.498 14.4433 226.731 14.48 226.978 14.48C227.344 14.48 227.634 14.4067 227.848 14.26C228.061 14.1133 228.168 13.9167 228.168 13.67C228.168 13.4167 228.064 13.24 227.858 13.14C227.658 13.0333 227.381 12.9467 227.028 12.88L226.618 12.81C226.304 12.7567 226.018 12.6733 225.758 12.56C225.498 12.4467 225.291 12.2933 225.138 12.1C224.984 11.9067 224.908 11.6633 224.908 11.37C224.908 10.93 225.078 10.5867 225.418 10.34C225.758 10.0933 226.208 9.97 226.768 9.97C227.321 9.97 227.768 10.0967 228.108 10.35C228.454 10.5967 228.678 10.9467 228.778 11.4L228.038 11.59C227.978 11.2367 227.834 10.99 227.608 10.85C227.381 10.7033 227.101 10.63 226.768 10.63C226.434 10.63 226.171 10.6933 225.978 10.82C225.784 10.94 225.688 11.12 225.688 11.36C225.688 11.5933 225.778 11.7667 225.958 11.88C226.144 11.9867 226.391 12.0667 226.698 12.12L227.108 12.19C227.454 12.25 227.764 12.3333 228.038 12.44C228.318 12.54 228.538 12.6867 228.698 12.88C228.864 13.0733 228.948 13.3267 228.948 13.64C228.948 14.12 228.768 14.49 228.408 14.75C228.054 15.01 227.578 15.14 226.978 15.14ZM230.281 15V8H231.071V10.89H231.211C231.278 10.7433 231.378 10.6067 231.511 10.48C231.651 10.3467 231.828 10.2367 232.041 10.15C232.261 10.0633 232.538 10.02 232.871 10.02C233.238 10.02 233.565 10.1 233.851 10.26C234.145 10.4133 234.378 10.64 234.551 10.94C234.725 11.2333 234.811 11.6 234.811 12.04V15H234.021V12.1C234.021 11.6133 233.898 11.26 233.651 11.04C233.411 10.82 233.085 10.71 232.671 10.71C232.198 10.71 231.811 10.8633 231.511 11.17C231.218 11.4767 231.071 11.9333 231.071 12.54V15H230.281ZM236.374 12.79V12.06H239.334V12.79H236.374ZM240.258 15L242.418 8H243.898L246.058 15H245.188L244.648 13.23H241.668L241.128 15H240.258ZM241.878 12.47H244.428L243.228 8.51H243.088L241.878 12.47ZM247.137 15V10.11H247.907V10.72H248.047C248.14 10.5467 248.293 10.3867 248.507 10.24C248.72 10.0933 249.02 10.02 249.407 10.02C249.787 10.02 250.093 10.1033 250.327 10.27C250.567 10.4367 250.74 10.64 250.847 10.88H250.987C251.1 10.64 251.27 10.4367 251.497 10.27C251.73 10.1033 252.053 10.02 252.467 10.02C252.793 10.02 253.08 10.0867 253.327 10.22C253.573 10.3533 253.767 10.5467 253.907 10.8C254.053 11.0467 254.127 11.3433 254.127 11.69V15H253.337V11.76C253.337 11.4333 253.24 11.1767 253.047 10.99C252.86 10.7967 252.597 10.7 252.257 10.7C251.897 10.7 251.6 10.8167 251.367 11.05C251.14 11.2833 251.027 11.62 251.027 12.06V15H250.237V11.76C250.237 11.4333 250.14 11.1767 249.947 10.99C249.76 10.7967 249.497 10.7 249.157 10.7C248.797 10.7 248.5 10.8167 248.267 11.05C248.04 11.2833 247.927 11.62 247.927 12.06V15H247.137ZM257.98 15.14C257.487 15.14 257.053 15.0367 256.68 14.83C256.307 14.6167 256.017 14.32 255.81 13.94C255.603 13.56 255.5 13.12 255.5 12.62V12.5C255.5 11.9933 255.603 11.55 255.81 11.17C256.017 10.79 256.303 10.4967 256.67 10.29C257.037 10.0767 257.457 9.97 257.93 9.97C258.39 9.97 258.797 10.07 259.15 10.27C259.503 10.4633 259.78 10.7433 259.98 11.11C260.18 11.4767 260.28 11.9067 260.28 12.4V12.76H256.29C256.31 13.2867 256.48 13.7 256.8 14C257.12 14.2933 257.52 14.44 258 14.44C258.42 14.44 258.743 14.3433 258.97 14.15C259.197 13.9567 259.37 13.7267 259.49 13.46L260.17 13.79C260.07 13.9967 259.93 14.2033 259.75 14.41C259.577 14.6167 259.347 14.79 259.06 14.93C258.78 15.07 258.42 15.14 257.98 15.14ZM256.3 12.11H259.48C259.453 11.6567 259.297 11.3033 259.01 11.05C258.73 10.7967 258.37 10.67 257.93 10.67C257.483 10.67 257.117 10.7967 256.83 11.05C256.543 11.3033 256.367 11.6567 256.3 12.11ZM261.658 15V10.11H262.428V10.71H262.568C262.655 10.4967 262.788 10.34 262.968 10.24C263.148 10.14 263.385 10.09 263.678 10.09H264.258V10.81H263.628C263.275 10.81 262.988 10.91 262.768 11.11C262.555 11.3033 262.448 11.6067 262.448 12.02V15H261.658ZM265.428 15V10.11H266.218V15H265.428ZM265.828 9.35C265.654 9.35 265.508 9.29333 265.388 9.18C265.274 9.06667 265.218 8.92333 265.218 8.75C265.218 8.57 265.274 8.42333 265.388 8.31C265.508 8.19667 265.654 8.14 265.828 8.14C266.001 8.14 266.144 8.19667 266.258 8.31C266.371 8.42333 266.428 8.57 266.428 8.75C266.428 8.92333 266.371 9.06667 266.258 9.18C266.144 9.29333 266.001 9.35 265.828 9.35ZM270.129 15.14C269.655 15.14 269.229 15.04 268.849 14.84C268.475 14.6333 268.179 14.34 267.959 13.96C267.745 13.58 267.639 13.13 267.639 12.61V12.5C267.639 11.9733 267.745 11.5233 267.959 11.15C268.179 10.77 268.475 10.48 268.849 10.28C269.229 10.0733 269.655 9.97 270.129 9.97C270.595 9.97 270.992 10.0567 271.319 10.23C271.652 10.4033 271.912 10.6333 272.099 10.92C272.292 11.2067 272.415 11.5133 272.469 11.84L271.699 12C271.665 11.76 271.585 11.54 271.459 11.34C271.339 11.14 271.169 10.98 270.949 10.86C270.729 10.74 270.459 10.68 270.139 10.68C269.812 10.68 269.519 10.7533 269.259 10.9C269.005 11.0467 268.802 11.2567 268.649 11.53C268.502 11.8033 268.429 12.13 268.429 12.51V12.6C268.429 12.98 268.502 13.3067 268.649 13.58C268.802 13.8533 269.005 14.0633 269.259 14.21C269.519 14.3567 269.812 14.43 270.139 14.43C270.625 14.43 270.995 14.3033 271.249 14.05C271.509 13.7967 271.669 13.4833 271.729 13.11L272.509 13.28C272.435 13.6 272.302 13.9033 272.109 14.19C271.915 14.4767 271.652 14.7067 271.319 14.88C270.992 15.0533 270.595 15.14 270.129 15.14ZM275.355 15.14C275.015 15.14 274.705 15.08 274.425 14.96C274.145 14.84 273.925 14.6667 273.765 14.44C273.605 14.2133 273.525 13.9367 273.525 13.61C273.525 13.2767 273.605 13.0033 273.765 12.79C273.925 12.57 274.145 12.4067 274.425 12.3C274.705 12.1867 275.019 12.13 275.365 12.13H277.015V11.77C277.015 11.4233 276.912 11.15 276.705 10.95C276.505 10.75 276.205 10.65 275.805 10.65C275.412 10.65 275.105 10.7467 274.885 10.94C274.665 11.1267 274.515 11.38 274.435 11.7L273.695 11.46C273.775 11.1867 273.902 10.94 274.075 10.72C274.249 10.4933 274.479 10.3133 274.765 10.18C275.059 10.04 275.409 9.97 275.815 9.97C276.442 9.97 276.929 10.1333 277.275 10.46C277.622 10.78 277.795 11.2333 277.795 11.82V14.03C277.795 14.23 277.889 14.33 278.075 14.33H278.525V15H277.835C277.615 15 277.439 14.94 277.305 14.82C277.172 14.6933 277.105 14.5267 277.105 14.32V14.27H276.985C276.912 14.3967 276.812 14.53 276.685 14.67C276.565 14.8033 276.399 14.9133 276.185 15C275.972 15.0933 275.695 15.14 275.355 15.14ZM275.445 14.46C275.912 14.46 276.289 14.3233 276.575 14.05C276.869 13.77 277.015 13.38 277.015 12.88V12.77H275.395C275.082 12.77 274.822 12.84 274.615 12.98C274.415 13.1133 274.315 13.3167 274.315 13.59C274.315 13.8633 274.419 14.0767 274.625 14.23C274.839 14.3833 275.112 14.46 275.445 14.46ZM279.607 15V10.11H280.377V10.94H280.517C280.624 10.7067 280.804 10.4967 281.057 10.31C281.317 10.1167 281.697 10.02 282.197 10.02C282.564 10.02 282.891 10.0967 283.177 10.25C283.471 10.4033 283.704 10.63 283.877 10.93C284.051 11.23 284.137 11.6 284.137 12.04V15H283.347V12.1C283.347 11.6133 283.224 11.26 282.977 11.04C282.737 10.82 282.411 10.71 281.997 10.71C281.524 10.71 281.137 10.8633 280.837 11.17C280.544 11.4767 280.397 11.9333 280.397 12.54V15H279.607ZM290.279 15.14C289.672 15.14 289.159 15 288.739 14.72C288.325 14.44 288.075 13.9967 287.989 13.39L288.739 13.22C288.792 13.54 288.892 13.7933 289.039 13.98C289.185 14.16 289.365 14.29 289.579 14.37C289.799 14.4433 290.032 14.48 290.279 14.48C290.645 14.48 290.935 14.4067 291.149 14.26C291.362 14.1133 291.469 13.9167 291.469 13.67C291.469 13.4167 291.365 13.24 291.159 13.14C290.959 13.0333 290.682 12.9467 290.329 12.88L289.919 12.81C289.605 12.7567 289.319 12.6733 289.059 12.56C288.799 12.4467 288.592 12.2933 288.439 12.1C288.285 11.9067 288.209 11.6633 288.209 11.37C288.209 10.93 288.379 10.5867 288.719 10.34C289.059 10.0933 289.509 9.97 290.069 9.97C290.622 9.97 291.069 10.0967 291.409 10.35C291.755 10.5967 291.979 10.9467 292.079 11.4L291.339 11.59C291.279 11.2367 291.135 10.99 290.909 10.85C290.682 10.7033 290.402 10.63 290.069 10.63C289.735 10.63 289.472 10.6933 289.279 10.82C289.085 10.94 288.989 11.12 288.989 11.36C288.989 11.5933 289.079 11.7667 289.259 11.88C289.445 11.9867 289.692 12.0667 289.999 12.12L290.409 12.19C290.755 12.25 291.065 12.3333 291.339 12.44C291.619 12.54 291.839 12.6867 291.999 12.88C292.165 13.0733 292.249 13.3267 292.249 13.64C292.249 14.12 292.069 14.49 291.709 14.75C291.355 15.01 290.879 15.14 290.279 15.14ZM295.452 15.09C295.099 15.09 294.772 15.0133 294.472 14.86C294.179 14.7067 293.945 14.48 293.772 14.18C293.605 13.8733 293.522 13.5033 293.522 13.07V10.11H294.312V13.01C294.312 13.4967 294.432 13.85 294.672 14.07C294.919 14.29 295.249 14.4 295.662 14.4C296.129 14.4 296.512 14.2467 296.812 13.94C297.112 13.6333 297.262 13.1767 297.262 12.57V10.11H298.052V15H297.282V14.17H297.142C297.035 14.4033 296.852 14.6167 296.592 14.81C296.332 14.9967 295.952 15.09 295.452 15.09ZM299.705 17V10.11H300.475V10.92H300.615C300.742 10.6733 300.945 10.4533 301.225 10.26C301.512 10.0667 301.908 9.97 302.415 9.97C302.835 9.97 303.218 10.0733 303.565 10.28C303.918 10.48 304.198 10.7667 304.405 11.14C304.618 11.5133 304.725 11.9633 304.725 12.49V12.62C304.725 13.14 304.622 13.59 304.415 13.97C304.208 14.35 303.928 14.64 303.575 14.84C303.228 15.04 302.842 15.14 302.415 15.14C302.075 15.14 301.785 15.0933 301.545 15C301.312 14.9133 301.122 14.8 300.975 14.66C300.828 14.52 300.715 14.3767 300.635 14.23H300.495V17H299.705ZM302.205 14.44C302.712 14.44 303.122 14.28 303.435 13.96C303.755 13.6333 303.915 13.18 303.915 12.6V12.51C303.915 11.93 303.755 11.48 303.435 11.16C303.122 10.8333 302.712 10.67 302.205 10.67C301.705 10.67 301.292 10.8333 300.965 11.16C300.645 11.48 300.485 11.93 300.485 12.51V12.6C300.485 13.18 300.645 13.6333 300.965 13.96C301.292 14.28 301.705 14.44 302.205 14.44ZM308.381 15.14C307.887 15.14 307.454 15.0367 307.081 14.83C306.707 14.6167 306.417 14.32 306.211 13.94C306.004 13.56 305.901 13.12 305.901 12.62V12.5C305.901 11.9933 306.004 11.55 306.211 11.17C306.417 10.79 306.704 10.4967 307.071 10.29C307.437 10.0767 307.857 9.97 308.331 9.97C308.791 9.97 309.197 10.07 309.551 10.27C309.904 10.4633 310.181 10.7433 310.381 11.11C310.581 11.4767 310.681 11.9067 310.681 12.4V12.76H306.691C306.711 13.2867 306.881 13.7 307.201 14C307.521 14.2933 307.921 14.44 308.401 14.44C308.821 14.44 309.144 14.3433 309.371 14.15C309.597 13.9567 309.771 13.7267 309.891 13.46L310.571 13.79C310.471 13.9967 310.331 14.2033 310.151 14.41C309.977 14.6167 309.747 14.79 309.461 14.93C309.181 15.07 308.821 15.14 308.381 15.14ZM306.701 12.11H309.881C309.854 11.6567 309.697 11.3033 309.411 11.05C309.131 10.7967 308.771 10.67 308.331 10.67C307.884 10.67 307.517 10.7967 307.231 11.05C306.944 11.3033 306.767 11.6567 306.701 12.11ZM312.059 15V10.11H312.829V10.71H312.969C313.055 10.4967 313.189 10.34 313.369 10.24C313.549 10.14 313.785 10.09 314.079 10.09H314.659V10.81H314.029C313.675 10.81 313.389 10.91 313.169 11.11C312.955 11.3033 312.849 11.6067 312.849 12.02V15H312.059ZM315.828 15V8H316.618V10.89H316.758C316.825 10.7433 316.925 10.6067 317.058 10.48C317.198 10.3467 317.375 10.2367 317.588 10.15C317.808 10.0633 318.085 10.02 318.418 10.02C318.785 10.02 319.111 10.1 319.398 10.26C319.691 10.4133 319.925 10.64 320.098 10.94C320.271 11.2333 320.358 11.6 320.358 12.04V15H319.568V12.1C319.568 11.6133 319.445 11.26 319.198 11.04C318.958 10.82 318.631 10.71 318.218 10.71C317.745 10.71 317.358 10.8633 317.058 11.17C316.765 11.4767 316.618 11.9333 316.618 12.54V15H315.828ZM324.201 15.14C323.708 15.14 323.274 15.0367 322.901 14.83C322.528 14.6167 322.238 14.32 322.031 13.94C321.824 13.56 321.721 13.12 321.721 12.62V12.5C321.721 11.9933 321.824 11.55 322.031 11.17C322.238 10.79 322.524 10.4967 322.891 10.29C323.258 10.0767 323.678 9.97 324.151 9.97C324.611 9.97 325.018 10.07 325.371 10.27C325.724 10.4633 326.001 10.7433 326.201 11.11C326.401 11.4767 326.501 11.9067 326.501 12.4V12.76H322.511C322.531 13.2867 322.701 13.7 323.021 14C323.341 14.2933 323.741 14.44 324.221 14.44C324.641 14.44 324.964 14.3433 325.191 14.15C325.418 13.9567 325.591 13.7267 325.711 13.46L326.391 13.79C326.291 13.9967 326.151 14.2033 325.971 14.41C325.798 14.6167 325.568 14.79 325.281 14.93C325.001 15.07 324.641 15.14 324.201 15.14ZM322.521 12.11H325.701C325.674 11.6567 325.518 11.3033 325.231 11.05C324.951 10.7967 324.591 10.67 324.151 10.67C323.704 10.67 323.338 10.7967 323.051 11.05C322.764 11.3033 322.588 11.6567 322.521 12.11ZM327.879 15V10.11H328.649V10.71H328.789C328.875 10.4967 329.009 10.34 329.189 10.24C329.369 10.14 329.605 10.09 329.899 10.09H330.479V10.81H329.849C329.495 10.81 329.209 10.91 328.989 11.11C328.775 11.3033 328.669 11.6067 328.669 12.02V15H327.879ZM333.733 15.14C333.239 15.14 332.803 15.0367 332.423 14.83C332.049 14.6233 331.756 14.3333 331.543 13.96C331.336 13.58 331.233 13.1333 331.233 12.62V12.49C331.233 11.9833 331.336 11.54 331.543 11.16C331.756 10.78 332.049 10.4867 332.423 10.28C332.803 10.0733 333.239 9.97 333.733 9.97C334.226 9.97 334.659 10.0733 335.033 10.28C335.413 10.4867 335.706 10.78 335.913 11.16C336.126 11.54 336.233 11.9833 336.233 12.49V12.62C336.233 13.1333 336.126 13.58 335.913 13.96C335.706 14.3333 335.413 14.6233 335.033 14.83C334.659 15.0367 334.226 15.14 333.733 15.14ZM333.733 14.43C334.253 14.43 334.666 14.2667 334.973 13.94C335.286 13.6067 335.443 13.16 335.443 12.6V12.51C335.443 11.95 335.286 11.5067 334.973 11.18C334.666 10.8467 334.253 10.68 333.733 10.68C333.219 10.68 332.806 10.8467 332.493 11.18C332.179 11.5067 332.023 11.95 332.023 12.51V12.6C332.023 13.16 332.179 13.6067 332.493 13.94C332.806 14.2667 333.219 14.43 333.733 14.43ZM341.183 15V10.8H339.683V10.11H341.183V8.86C341.183 8.59333 341.256 8.38333 341.403 8.23C341.556 8.07667 341.773 8 342.053 8H343.283V8.68H342.273C342.073 8.68 341.973 8.78 341.973 8.98V10.11H343.513V10.8H341.973V15H341.183ZM344.402 15V10.11H345.192V15H344.402ZM344.802 9.35C344.629 9.35 344.482 9.29333 344.362 9.18C344.249 9.06667 344.192 8.92333 344.192 8.75C344.192 8.57 344.249 8.42333 344.362 8.31C344.482 8.19667 344.629 8.14 344.802 8.14C344.976 8.14 345.119 8.19667 345.232 8.31C345.346 8.42333 345.402 8.57 345.402 8.75C345.402 8.92333 345.346 9.06667 345.232 9.18C345.119 9.29333 344.976 9.35 344.802 9.35ZM346.853 15V8H347.643V15H346.853ZM349.305 15V10.11H350.075V10.72H350.215C350.308 10.5467 350.461 10.3867 350.675 10.24C350.888 10.0933 351.188 10.02 351.575 10.02C351.955 10.02 352.261 10.1033 352.495 10.27C352.735 10.4367 352.908 10.64 353.015 10.88H353.155C353.268 10.64 353.438 10.4367 353.665 10.27C353.898 10.1033 354.221 10.02 354.635 10.02C354.961 10.02 355.248 10.0867 355.495 10.22C355.741 10.3533 355.935 10.5467 356.075 10.8C356.221 11.0467 356.295 11.3433 356.295 11.69V15H355.505V11.76C355.505 11.4333 355.408 11.1767 355.215 10.99C355.028 10.7967 354.765 10.7 354.425 10.7C354.065 10.7 353.768 10.8167 353.535 11.05C353.308 11.2833 353.195 11.62 353.195 12.06V15H352.405V11.76C352.405 11.4333 352.308 11.1767 352.115 10.99C351.928 10.7967 351.665 10.7 351.325 10.7C350.965 10.7 350.668 10.8167 350.435 11.05C350.208 11.2833 350.095 11.62 350.095 12.06V15H349.305ZM362.276 15C361.996 15 361.78 14.9233 361.626 14.77C361.48 14.6167 361.406 14.4067 361.406 14.14V10.8H359.936V10.11H361.406V8.37H362.196V10.11H363.796V10.8H362.196V14.02C362.196 14.22 362.293 14.32 362.486 14.32H363.576V15H362.276ZM365.076 15V10.11H365.846V10.71H365.986C366.073 10.4967 366.206 10.34 366.386 10.24C366.566 10.14 366.803 10.09 367.096 10.09H367.676V10.81H367.046C366.693 10.81 366.406 10.91 366.186 11.11C365.973 11.3033 365.866 11.6067 365.866 12.02V15H365.076ZM368.846 15V10.11H369.636V15H368.846ZM369.246 9.35C369.072 9.35 368.926 9.29333 368.806 9.18C368.692 9.06667 368.636 8.92333 368.636 8.75C368.636 8.57 368.692 8.42333 368.806 8.31C368.926 8.19667 369.072 8.14 369.246 8.14C369.419 8.14 369.562 8.19667 369.676 8.31C369.789 8.42333 369.846 8.57 369.846 8.75C369.846 8.92333 369.789 9.06667 369.676 9.18C369.562 9.29333 369.419 9.35 369.246 9.35ZM371.297 15V8H372.087V15H371.297ZM376.008 15.14C375.515 15.14 375.078 15.0367 374.698 14.83C374.325 14.6233 374.031 14.3333 373.818 13.96C373.611 13.58 373.508 13.1333 373.508 12.62V12.49C373.508 11.9833 373.611 11.54 373.818 11.16C374.031 10.78 374.325 10.4867 374.698 10.28C375.078 10.0733 375.515 9.97 376.008 9.97C376.501 9.97 376.935 10.0733 377.308 10.28C377.688 10.4867 377.981 10.78 378.188 11.16C378.401 11.54 378.508 11.9833 378.508 12.49V12.62C378.508 13.1333 378.401 13.58 378.188 13.96C377.981 14.3333 377.688 14.6233 377.308 14.83C376.935 15.0367 376.501 15.14 376.008 15.14ZM376.008 14.43C376.528 14.43 376.941 14.2667 377.248 13.94C377.561 13.6067 377.718 13.16 377.718 12.6V12.51C377.718 11.95 377.561 11.5067 377.248 11.18C376.941 10.8467 376.528 10.68 376.008 10.68C375.495 10.68 375.081 10.8467 374.768 11.18C374.455 11.5067 374.298 11.95 374.298 12.51V12.6C374.298 13.16 374.455 13.6067 374.768 13.94C375.081 14.2667 375.495 14.43 376.008 14.43ZM379.69 12.58V12.44C379.69 11.9267 379.793 11.4867 380 11.12C380.206 10.7533 380.486 10.47 380.84 10.27C381.193 10.07 381.58 9.97 382 9.97C382.513 9.97 382.906 10.07 383.18 10.27C383.46 10.4633 383.666 10.68 383.8 10.92H383.94V10.11H384.69V16.14C384.69 16.4067 384.616 16.6167 384.47 16.77C384.323 16.9233 384.11 17 383.83 17H380.51V16.3H383.62C383.82 16.3 383.92 16.2 383.92 16V14.14H383.78C383.7 14.2867 383.586 14.43 383.44 14.57C383.293 14.71 383.103 14.8267 382.87 14.92C382.636 15.0067 382.346 15.05 382 15.05C381.58 15.05 381.193 14.95 380.84 14.75C380.486 14.55 380.206 14.2667 380 13.9C379.793 13.5267 379.69 13.0867 379.69 12.58ZM382.21 14.35C382.716 14.35 383.126 14.19 383.44 13.87C383.76 13.55 383.92 13.11 383.92 12.55V12.47C383.92 11.9033 383.76 11.4633 383.44 11.15C383.126 10.83 382.716 10.67 382.21 10.67C381.71 10.67 381.296 10.83 380.97 11.15C380.65 11.4633 380.49 11.9033 380.49 12.47V12.55C380.49 13.11 380.65 13.55 380.97 13.87C381.296 14.19 381.71 14.35 382.21 14.35ZM386.936 17V16.3H389.736C389.929 16.3 390.026 16.2 390.026 16V14.22H389.886C389.819 14.36 389.716 14.5 389.576 14.64C389.442 14.7733 389.266 14.8833 389.046 14.97C388.826 15.05 388.549 15.09 388.216 15.09C387.862 15.09 387.536 15.0133 387.236 14.86C386.942 14.7067 386.709 14.48 386.536 14.18C386.369 13.88 386.286 13.5133 386.286 13.08V10.11H387.076V13.02C387.076 13.5 387.196 13.85 387.436 14.07C387.682 14.29 388.012 14.4 388.426 14.4C388.892 14.4 389.276 14.2467 389.576 13.94C389.876 13.6333 390.026 13.1767 390.026 12.57V10.11H390.816V16.14C390.816 16.4067 390.739 16.6167 390.586 16.77C390.439 16.9233 390.222 17 389.936 17H386.936ZM397.747 15.14C397.24 15.14 396.844 15.0433 396.557 14.85C396.277 14.6567 396.074 14.4367 395.947 14.19H395.807V15H395.037V8H395.827V10.88H395.967C396.047 10.7267 396.16 10.5833 396.307 10.45C396.454 10.31 396.644 10.1967 396.877 10.11C397.117 10.0167 397.407 9.97 397.747 9.97C398.174 9.97 398.56 10.0733 398.907 10.28C399.26 10.48 399.54 10.77 399.747 11.15C399.954 11.5233 400.057 11.97 400.057 12.49V12.62C400.057 13.14 399.95 13.59 399.737 13.97C399.53 14.35 399.25 14.64 398.897 14.84C398.55 15.04 398.167 15.14 397.747 15.14ZM397.537 14.44C398.044 14.44 398.454 14.28 398.767 13.96C399.087 13.6333 399.247 13.18 399.247 12.6V12.51C399.247 11.93 399.087 11.48 398.767 11.16C398.454 10.8333 398.044 10.67 397.537 10.67C397.037 10.67 396.624 10.8333 396.297 11.16C395.977 11.48 395.817 11.93 395.817 12.51V12.6C395.817 13.18 395.977 13.6333 396.297 13.96C396.624 14.28 397.037 14.44 397.537 14.44ZM402.973 15.14C402.633 15.14 402.323 15.08 402.043 14.96C401.763 14.84 401.543 14.6667 401.383 14.44C401.223 14.2133 401.143 13.9367 401.143 13.61C401.143 13.2767 401.223 13.0033 401.383 12.79C401.543 12.57 401.763 12.4067 402.043 12.3C402.323 12.1867 402.636 12.13 402.983 12.13H404.633V11.77C404.633 11.4233 404.529 11.15 404.323 10.95C404.123 10.75 403.823 10.65 403.423 10.65C403.029 10.65 402.723 10.7467 402.503 10.94C402.283 11.1267 402.133 11.38 402.053 11.7L401.313 11.46C401.393 11.1867 401.519 10.94 401.693 10.72C401.866 10.4933 402.096 10.3133 402.383 10.18C402.676 10.04 403.026 9.97 403.433 9.97C404.059 9.97 404.546 10.1333 404.893 10.46C405.239 10.78 405.413 11.2333 405.413 11.82V14.03C405.413 14.23 405.506 14.33 405.693 14.33H406.143V15H405.453C405.233 15 405.056 14.94 404.923 14.82C404.789 14.6933 404.723 14.5267 404.723 14.32V14.27H404.603C404.529 14.3967 404.429 14.53 404.303 14.67C404.183 14.8033 404.016 14.9133 403.803 15C403.589 15.0933 403.313 15.14 402.973 15.14ZM403.063 14.46C403.529 14.46 403.906 14.3233 404.193 14.05C404.486 13.77 404.633 13.38 404.633 12.88V12.77H403.013C402.699 12.77 402.439 12.84 402.233 12.98C402.033 13.1133 401.933 13.3167 401.933 13.59C401.933 13.8633 402.036 14.0767 402.243 14.23C402.456 14.3833 402.729 14.46 403.063 14.46ZM409.155 15.14C408.549 15.14 408.035 15 407.615 14.72C407.202 14.44 406.952 13.9967 406.865 13.39L407.615 13.22C407.669 13.54 407.769 13.7933 407.915 13.98C408.062 14.16 408.242 14.29 408.455 14.37C408.675 14.4433 408.909 14.48 409.155 14.48C409.522 14.48 409.812 14.4067 410.025 14.26C410.239 14.1133 410.345 13.9167 410.345 13.67C410.345 13.4167 410.242 13.24 410.035 13.14C409.835 13.0333 409.559 12.9467 409.205 12.88L408.795 12.81C408.482 12.7567 408.195 12.6733 407.935 12.56C407.675 12.4467 407.469 12.2933 407.315 12.1C407.162 11.9067 407.085 11.6633 407.085 11.37C407.085 10.93 407.255 10.5867 407.595 10.34C407.935 10.0933 408.385 9.97 408.945 9.97C409.499 9.97 409.945 10.0967 410.285 10.35C410.632 10.5967 410.855 10.9467 410.955 11.4L410.215 11.59C410.155 11.2367 410.012 10.99 409.785 10.85C409.559 10.7033 409.279 10.63 408.945 10.63C408.612 10.63 408.349 10.6933 408.155 10.82C407.962 10.94 407.865 11.12 407.865 11.36C407.865 11.5933 407.955 11.7667 408.135 11.88C408.322 11.9867 408.569 12.0667 408.875 12.12L409.285 12.19C409.632 12.25 409.942 12.3333 410.215 12.44C410.495 12.54 410.715 12.6867 410.875 12.88C411.042 13.0733 411.125 13.3267 411.125 13.64C411.125 14.12 410.945 14.49 410.585 14.75C410.232 15.01 409.755 15.14 409.155 15.14ZM414.699 15.14C414.206 15.14 413.772 15.0367 413.399 14.83C413.026 14.6167 412.736 14.32 412.529 13.94C412.322 13.56 412.219 13.12 412.219 12.62V12.5C412.219 11.9933 412.322 11.55 412.529 11.17C412.736 10.79 413.022 10.4967 413.389 10.29C413.756 10.0767 414.176 9.97 414.649 9.97C415.109 9.97 415.516 10.07 415.869 10.27C416.222 10.4633 416.499 10.7433 416.699 11.11C416.899 11.4767 416.999 11.9067 416.999 12.4V12.76H413.009C413.029 13.2867 413.199 13.7 413.519 14C413.839 14.2933 414.239 14.44 414.719 14.44C415.139 14.44 415.462 14.3433 415.689 14.15C415.916 13.9567 416.089 13.7267 416.209 13.46L416.889 13.79C416.789 13.9967 416.649 14.2033 416.469 14.41C416.296 14.6167 416.066 14.79 415.779 14.93C415.499 15.07 415.139 15.14 414.699 15.14ZM413.019 12.11H416.199C416.172 11.6567 416.016 11.3033 415.729 11.05C415.449 10.7967 415.089 10.67 414.649 10.67C414.202 10.67 413.836 10.7967 413.549 11.05C413.262 11.3033 413.086 11.6567 413.019 12.11ZM420.447 15.14C420.027 15.14 419.64 15.04 419.287 14.84C418.934 14.64 418.654 14.35 418.447 13.97C418.24 13.59 418.137 13.14 418.137 12.62V12.49C418.137 11.97 418.24 11.5233 418.447 11.15C418.654 10.77 418.93 10.48 419.277 10.28C419.63 10.0733 420.02 9.97 420.447 9.97C420.787 9.97 421.074 10.0167 421.307 10.11C421.547 10.1967 421.74 10.31 421.887 10.45C422.034 10.5833 422.147 10.7267 422.227 10.88H422.367V8H423.157V15H422.387V14.19H422.247C422.114 14.4367 421.907 14.6567 421.627 14.85C421.347 15.0433 420.954 15.14 420.447 15.14ZM420.657 14.44C421.164 14.44 421.574 14.28 421.887 13.96C422.207 13.6333 422.367 13.18 422.367 12.6V12.51C422.367 11.93 422.207 11.48 421.887 11.16C421.574 10.8333 421.164 10.67 420.657 10.67C420.157 10.67 419.744 10.8333 419.417 11.16C419.097 11.48 418.937 11.93 418.937 12.51V12.6C418.937 13.18 419.097 13.6333 419.417 13.96C419.744 14.28 420.157 14.44 420.657 14.44ZM429.641 15.14C429.147 15.14 428.711 15.0367 428.331 14.83C427.957 14.6233 427.664 14.3333 427.451 13.96C427.244 13.58 427.141 13.1333 427.141 12.62V12.49C427.141 11.9833 427.244 11.54 427.451 11.16C427.664 10.78 427.957 10.4867 428.331 10.28C428.711 10.0733 429.147 9.97 429.641 9.97C430.134 9.97 430.567 10.0733 430.941 10.28C431.321 10.4867 431.614 10.78 431.821 11.16C432.034 11.54 432.141 11.9833 432.141 12.49V12.62C432.141 13.1333 432.034 13.58 431.821 13.96C431.614 14.3333 431.321 14.6233 430.941 14.83C430.567 15.0367 430.134 15.14 429.641 15.14ZM429.641 14.43C430.161 14.43 430.574 14.2667 430.881 13.94C431.194 13.6067 431.351 13.16 431.351 12.6V12.51C431.351 11.95 431.194 11.5067 430.881 11.18C430.574 10.8467 430.161 10.68 429.641 10.68C429.127 10.68 428.714 10.8467 428.401 11.18C428.087 11.5067 427.931 11.95 427.931 12.51V12.6C427.931 13.16 428.087 13.6067 428.401 13.94C428.714 14.2667 429.127 14.43 429.641 14.43ZM433.562 15V10.11H434.332V10.94H434.472C434.579 10.7067 434.759 10.4967 435.012 10.31C435.272 10.1167 435.652 10.02 436.152 10.02C436.519 10.02 436.846 10.0967 437.132 10.25C437.426 10.4033 437.659 10.63 437.832 10.93C438.006 11.23 438.092 11.6 438.092 12.04V15H437.302V12.1C437.302 11.6133 437.179 11.26 436.932 11.04C436.692 10.82 436.366 10.71 435.952 10.71C435.479 10.71 435.092 10.8633 434.792 11.17C434.499 11.4767 434.352 11.9333 434.352 12.54V15H433.562ZM444.064 15C443.784 15 443.567 14.9233 443.414 14.77C443.267 14.6167 443.194 14.4067 443.194 14.14V10.8H441.724V10.11H443.194V8.37H443.984V10.11H445.584V10.8H443.984V14.02C443.984 14.22 444.08 14.32 444.274 14.32H445.364V15H444.064ZM446.863 15V8H447.653V10.89H447.793C447.86 10.7433 447.96 10.6067 448.093 10.48C448.233 10.3467 448.41 10.2367 448.623 10.15C448.843 10.0633 449.12 10.02 449.453 10.02C449.82 10.02 450.147 10.1 450.433 10.26C450.727 10.4133 450.96 10.64 451.133 10.94C451.307 11.2333 451.393 11.6 451.393 12.04V15H450.603V12.1C450.603 11.6133 450.48 11.26 450.233 11.04C449.993 10.82 449.667 10.71 449.253 10.71C448.78 10.71 448.393 10.8633 448.093 11.17C447.8 11.4767 447.653 11.9333 447.653 12.54V15H446.863ZM455.236 15.14C454.743 15.14 454.309 15.0367 453.936 14.83C453.563 14.6167 453.273 14.32 453.066 13.94C452.859 13.56 452.756 13.12 452.756 12.62V12.5C452.756 11.9933 452.859 11.55 453.066 11.17C453.273 10.79 453.559 10.4967 453.926 10.29C454.293 10.0767 454.713 9.97 455.186 9.97C455.646 9.97 456.053 10.07 456.406 10.27C456.759 10.4633 457.036 10.7433 457.236 11.11C457.436 11.4767 457.536 11.9067 457.536 12.4V12.76H453.546C453.566 13.2867 453.736 13.7 454.056 14C454.376 14.2933 454.776 14.44 455.256 14.44C455.676 14.44 455.999 14.3433 456.226 14.15C456.453 13.9567 456.626 13.7267 456.746 13.46L457.426 13.79C457.326 13.9967 457.186 14.2033 457.006 14.41C456.833 14.6167 456.603 14.79 456.316 14.93C456.036 15.07 455.676 15.14 455.236 15.14ZM453.556 12.11H456.736C456.709 11.6567 456.553 11.3033 456.266 11.05C455.986 10.7967 455.626 10.67 455.186 10.67C454.739 10.67 454.373 10.7967 454.086 11.05C453.799 11.3033 453.623 11.6567 453.556 12.11ZM461.122 15V14.25H462.102V8.75H461.122V8H463.852C464.772 8 465.482 8.23333 465.982 8.7C466.489 9.16667 466.742 9.88333 466.742 10.85V12.15C466.742 13.1233 466.489 13.8433 465.982 14.31C465.482 14.77 464.772 15 463.852 15H461.122ZM462.942 14.24H463.852C464.532 14.24 465.046 14.0733 465.392 13.74C465.739 13.4067 465.912 12.89 465.912 12.19V10.82C465.912 10.1067 465.739 9.58667 465.392 9.26C465.046 8.93333 464.532 8.77 463.852 8.77H462.942V14.24ZM470.613 15.14C469.78 15.14 469.117 14.9 468.623 14.42C468.13 13.9333 467.883 13.2267 467.883 12.3V10.7C467.883 9.77333 468.13 9.07 468.623 8.59C469.117 8.10333 469.78 7.86 470.613 7.86C471.44 7.86 472.073 8.09 472.513 8.55C472.96 9.01 473.183 9.64 473.183 10.44V10.49H472.353V10.41C472.353 9.88333 472.21 9.45333 471.923 9.12C471.643 8.78 471.207 8.61 470.613 8.61C470.02 8.61 469.557 8.79333 469.223 9.16C468.89 9.52 468.723 10.0267 468.723 10.68V12.32C468.723 12.9733 468.89 13.4833 469.223 13.85C469.557 14.21 470.02 14.39 470.613 14.39C471.207 14.39 471.643 14.2233 471.923 13.89C472.21 13.55 472.353 13.1167 472.353 12.59V12.43H473.183V12.56C473.183 13.36 472.96 13.99 472.513 14.45C472.073 14.91 471.44 15.14 470.613 15.14ZM479.598 15.14C478.764 15.14 478.101 14.9 477.608 14.42C477.114 13.9333 476.868 13.2267 476.868 12.3V10.7C476.868 9.77333 477.114 9.07 477.608 8.59C478.101 8.10333 478.764 7.86 479.598 7.86C480.424 7.86 481.058 8.09 481.498 8.55C481.944 9.01 482.168 9.64 482.168 10.44V10.49H481.338V10.41C481.338 9.88333 481.194 9.45333 480.908 9.12C480.628 8.78 480.191 8.61 479.598 8.61C479.004 8.61 478.541 8.79333 478.208 9.16C477.874 9.52 477.708 10.0267 477.708 10.68V12.32C477.708 12.9733 477.874 13.4833 478.208 13.85C478.541 14.21 479.004 14.39 479.598 14.39C480.191 14.39 480.628 14.2233 480.908 13.89C481.194 13.55 481.338 13.1167 481.338 12.59V12.43H482.168V12.56C482.168 13.36 481.944 13.99 481.498 14.45C481.058 14.91 480.424 15.14 479.598 15.14ZM485.774 15.14C485.28 15.14 484.844 15.0367 484.464 14.83C484.09 14.6233 483.797 14.3333 483.584 13.96C483.377 13.58 483.274 13.1333 483.274 12.62V12.49C483.274 11.9833 483.377 11.54 483.584 11.16C483.797 10.78 484.09 10.4867 484.464 10.28C484.844 10.0733 485.28 9.97 485.774 9.97C486.267 9.97 486.7 10.0733 487.074 10.28C487.454 10.4867 487.747 10.78 487.954 11.16C488.167 11.54 488.274 11.9833 488.274 12.49V12.62C488.274 13.1333 488.167 13.58 487.954 13.96C487.747 14.3333 487.454 14.6233 487.074 14.83C486.7 15.0367 486.267 15.14 485.774 15.14ZM485.774 14.43C486.294 14.43 486.707 14.2667 487.014 13.94C487.327 13.6067 487.484 13.16 487.484 12.6V12.51C487.484 11.95 487.327 11.5067 487.014 11.18C486.707 10.8467 486.294 10.68 485.774 10.68C485.26 10.68 484.847 10.8467 484.534 11.18C484.22 11.5067 484.064 11.95 484.064 12.51V12.6C484.064 13.16 484.22 13.6067 484.534 13.94C484.847 14.2667 485.26 14.43 485.774 14.43ZM489.695 15V10.11H490.465V10.72H490.605C490.699 10.5467 490.852 10.3867 491.065 10.24C491.279 10.0933 491.579 10.02 491.965 10.02C492.345 10.02 492.652 10.1033 492.885 10.27C493.125 10.4367 493.299 10.64 493.405 10.88H493.545C493.659 10.64 493.829 10.4367 494.055 10.27C494.289 10.1033 494.612 10.02 495.025 10.02C495.352 10.02 495.639 10.0867 495.885 10.22C496.132 10.3533 496.325 10.5467 496.465 10.8C496.612 11.0467 496.685 11.3433 496.685 11.69V15H495.895V11.76C495.895 11.4333 495.799 11.1767 495.605 10.99C495.419 10.7967 495.155 10.7 494.815 10.7C494.455 10.7 494.159 10.8167 493.925 11.05C493.699 11.2833 493.585 11.62 493.585 12.06V15H492.795V11.76C492.795 11.4333 492.699 11.1767 492.505 10.99C492.319 10.7967 492.055 10.7 491.715 10.7C491.355 10.7 491.059 10.8167 490.825 11.05C490.599 11.2833 490.485 11.62 490.485 12.06V15H489.695ZM498.299 15V10.11H499.089V15H498.299ZM498.699 9.35C498.525 9.35 498.379 9.29333 498.259 9.18C498.145 9.06667 498.089 8.92333 498.089 8.75C498.089 8.57 498.145 8.42333 498.259 8.31C498.379 8.19667 498.525 8.14 498.699 8.14C498.872 8.14 499.015 8.19667 499.129 8.31C499.242 8.42333 499.299 8.57 499.299 8.75C499.299 8.92333 499.242 9.06667 499.129 9.18C499.015 9.29333 498.872 9.35 498.699 9.35ZM503 15.14C502.527 15.14 502.1 15.04 501.72 14.84C501.347 14.6333 501.05 14.34 500.83 13.96C500.617 13.58 500.51 13.13 500.51 12.61V12.5C500.51 11.9733 500.617 11.5233 500.83 11.15C501.05 10.77 501.347 10.48 501.72 10.28C502.1 10.0733 502.527 9.97 503 9.97C503.467 9.97 503.863 10.0567 504.19 10.23C504.523 10.4033 504.783 10.6333 504.97 10.92C505.163 11.2067 505.287 11.5133 505.34 11.84L504.57 12C504.537 11.76 504.457 11.54 504.33 11.34C504.21 11.14 504.04 10.98 503.82 10.86C503.6 10.74 503.33 10.68 503.01 10.68C502.683 10.68 502.39 10.7533 502.13 10.9C501.877 11.0467 501.673 11.2567 501.52 11.53C501.373 11.8033 501.3 12.13 501.3 12.51V12.6C501.3 12.98 501.373 13.3067 501.52 13.58C501.673 13.8533 501.877 14.0633 502.13 14.21C502.39 14.3567 502.683 14.43 503.01 14.43C503.497 14.43 503.867 14.3033 504.12 14.05C504.38 13.7967 504.54 13.4833 504.6 13.11L505.38 13.28C505.307 13.6 505.173 13.9033 504.98 14.19C504.787 14.4767 504.523 14.7067 504.19 14.88C503.863 15.0533 503.467 15.14 503 15.14ZM508.696 15.14C508.09 15.14 507.576 15 507.156 14.72C506.743 14.44 506.493 13.9967 506.406 13.39L507.156 13.22C507.21 13.54 507.31 13.7933 507.456 13.98C507.603 14.16 507.783 14.29 507.996 14.37C508.216 14.4433 508.45 14.48 508.696 14.48C509.063 14.48 509.353 14.4067 509.566 14.26C509.78 14.1133 509.886 13.9167 509.886 13.67C509.886 13.4167 509.783 13.24 509.576 13.14C509.376 13.0333 509.1 12.9467 508.746 12.88L508.336 12.81C508.023 12.7567 507.736 12.6733 507.476 12.56C507.216 12.4467 507.01 12.2933 506.856 12.1C506.703 11.9067 506.626 11.6633 506.626 11.37C506.626 10.93 506.796 10.5867 507.136 10.34C507.476 10.0933 507.926 9.97 508.486 9.97C509.04 9.97 509.486 10.0967 509.826 10.35C510.173 10.5967 510.396 10.9467 510.496 11.4L509.756 11.59C509.696 11.2367 509.553 10.99 509.326 10.85C509.1 10.7033 508.82 10.63 508.486 10.63C508.153 10.63 507.89 10.6933 507.696 10.82C507.503 10.94 507.406 11.12 507.406 11.36C507.406 11.5933 507.496 11.7667 507.676 11.88C507.863 11.9867 508.11 12.0667 508.416 12.12L508.826 12.19C509.173 12.25 509.483 12.3333 509.756 12.44C510.036 12.54 510.256 12.6867 510.416 12.88C510.583 13.0733 510.666 13.3267 510.666 13.64C510.666 14.12 510.486 14.49 510.126 14.75C509.773 15.01 509.296 15.14 508.696 15.14ZM516.818 15.14C516.345 15.14 515.918 15.04 515.538 14.84C515.165 14.6333 514.868 14.34 514.648 13.96C514.435 13.58 514.328 13.13 514.328 12.61V12.5C514.328 11.9733 514.435 11.5233 514.648 11.15C514.868 10.77 515.165 10.48 515.538 10.28C515.918 10.0733 516.345 9.97 516.818 9.97C517.285 9.97 517.682 10.0567 518.008 10.23C518.342 10.4033 518.602 10.6333 518.788 10.92C518.982 11.2067 519.105 11.5133 519.158 11.84L518.388 12C518.355 11.76 518.275 11.54 518.148 11.34C518.028 11.14 517.858 10.98 517.638 10.86C517.418 10.74 517.148 10.68 516.828 10.68C516.502 10.68 516.208 10.7533 515.948 10.9C515.695 11.0467 515.492 11.2567 515.338 11.53C515.192 11.8033 515.118 12.13 515.118 12.51V12.6C515.118 12.98 515.192 13.3067 515.338 13.58C515.492 13.8533 515.695 14.0633 515.948 14.21C516.208 14.3567 516.502 14.43 516.828 14.43C517.315 14.43 517.685 14.3033 517.938 14.05C518.198 13.7967 518.358 13.4833 518.418 13.11L519.198 13.28C519.125 13.6 518.992 13.9033 518.798 14.19C518.605 14.4767 518.342 14.7067 518.008 14.88C517.682 15.0533 517.285 15.14 516.818 15.14ZM520.545 15V8H521.335V10.89H521.475C521.542 10.7433 521.642 10.6067 521.775 10.48C521.915 10.3467 522.092 10.2367 522.305 10.15C522.525 10.0633 522.802 10.02 523.135 10.02C523.502 10.02 523.828 10.1 524.115 10.26C524.408 10.4133 524.642 10.64 524.815 10.94C524.988 11.2333 525.075 11.6 525.075 12.04V15H524.285V12.1C524.285 11.6133 524.162 11.26 523.915 11.04C523.675 10.82 523.348 10.71 522.935 10.71C522.462 10.71 522.075 10.8633 521.775 11.17C521.482 11.4767 521.335 11.9333 521.335 12.54V15H520.545ZM528.178 15.14C527.838 15.14 527.528 15.08 527.248 14.96C526.968 14.84 526.748 14.6667 526.588 14.44C526.428 14.2133 526.348 13.9367 526.348 13.61C526.348 13.2767 526.428 13.0033 526.588 12.79C526.748 12.57 526.968 12.4067 527.248 12.3C527.528 12.1867 527.841 12.13 528.188 12.13H529.838V11.77C529.838 11.4233 529.734 11.15 529.528 10.95C529.328 10.75 529.028 10.65 528.628 10.65C528.234 10.65 527.928 10.7467 527.708 10.94C527.488 11.1267 527.338 11.38 527.258 11.7L526.518 11.46C526.598 11.1867 526.724 10.94 526.898 10.72C527.071 10.4933 527.301 10.3133 527.588 10.18C527.881 10.04 528.231 9.97 528.638 9.97C529.264 9.97 529.751 10.1333 530.098 10.46C530.444 10.78 530.618 11.2333 530.618 11.82V14.03C530.618 14.23 530.711 14.33 530.898 14.33H531.348V15H530.658C530.438 15 530.261 14.94 530.128 14.82C529.994 14.6933 529.928 14.5267 529.928 14.32V14.27H529.808C529.734 14.3967 529.634 14.53 529.508 14.67C529.388 14.8033 529.221 14.9133 529.008 15C528.794 15.0933 528.518 15.14 528.178 15.14ZM528.268 14.46C528.734 14.46 529.111 14.3233 529.398 14.05C529.691 13.77 529.838 13.38 529.838 12.88V12.77H528.218C527.904 12.77 527.644 12.84 527.438 12.98C527.238 13.1133 527.138 13.3167 527.138 13.59C527.138 13.8633 527.241 14.0767 527.448 14.23C527.661 14.3833 527.934 14.46 528.268 14.46ZM532.43 15V10.11H533.2V10.71H533.34C533.426 10.4967 533.56 10.34 533.74 10.24C533.92 10.14 534.156 10.09 534.45 10.09H535.03V10.81H534.4C534.046 10.81 533.76 10.91 533.54 11.11C533.326 11.3033 533.22 11.6067 533.22 12.02V15H532.43ZM537.533 15.14C537.193 15.14 536.883 15.08 536.603 14.96C536.323 14.84 536.103 14.6667 535.943 14.44C535.783 14.2133 535.703 13.9367 535.703 13.61C535.703 13.2767 535.783 13.0033 535.943 12.79C536.103 12.57 536.323 12.4067 536.603 12.3C536.883 12.1867 537.196 12.13 537.543 12.13H539.193V11.77C539.193 11.4233 539.09 11.15 538.883 10.95C538.683 10.75 538.383 10.65 537.983 10.65C537.59 10.65 537.283 10.7467 537.063 10.94C536.843 11.1267 536.693 11.38 536.613 11.7L535.873 11.46C535.953 11.1867 536.08 10.94 536.253 10.72C536.426 10.4933 536.656 10.3133 536.943 10.18C537.236 10.04 537.586 9.97 537.993 9.97C538.62 9.97 539.106 10.1333 539.453 10.46C539.8 10.78 539.973 11.2333 539.973 11.82V14.03C539.973 14.23 540.066 14.33 540.253 14.33H540.703V15H540.013C539.793 15 539.616 14.94 539.483 14.82C539.35 14.6933 539.283 14.5267 539.283 14.32V14.27H539.163C539.09 14.3967 538.99 14.53 538.863 14.67C538.743 14.8033 538.576 14.9133 538.363 15C538.15 15.0933 537.873 15.14 537.533 15.14ZM537.623 14.46C538.09 14.46 538.466 14.3233 538.753 14.05C539.046 13.77 539.193 13.38 539.193 12.88V12.77H537.573C537.26 12.77 537 12.84 536.793 12.98C536.593 13.1133 536.493 13.3167 536.493 13.59C536.493 13.8633 536.596 14.0767 536.803 14.23C537.016 14.3833 537.29 14.46 537.623 14.46ZM543.898 15.14C543.425 15.14 542.998 15.04 542.618 14.84C542.245 14.6333 541.948 14.34 541.728 13.96C541.515 13.58 541.408 13.13 541.408 12.61V12.5C541.408 11.9733 541.515 11.5233 541.728 11.15C541.948 10.77 542.245 10.48 542.618 10.28C542.998 10.0733 543.425 9.97 543.898 9.97C544.365 9.97 544.762 10.0567 545.088 10.23C545.422 10.4033 545.682 10.6333 545.868 10.92C546.062 11.2067 546.185 11.5133 546.238 11.84L545.468 12C545.435 11.76 545.355 11.54 545.228 11.34C545.108 11.14 544.938 10.98 544.718 10.86C544.498 10.74 544.228 10.68 543.908 10.68C543.582 10.68 543.288 10.7533 543.028 10.9C542.775 11.0467 542.572 11.2567 542.418 11.53C542.272 11.8033 542.198 12.13 542.198 12.51V12.6C542.198 12.98 542.272 13.3067 542.418 13.58C542.572 13.8533 542.775 14.0633 543.028 14.21C543.288 14.3567 543.582 14.43 543.908 14.43C544.395 14.43 544.765 14.3033 545.018 14.05C545.278 13.7967 545.438 13.4833 545.498 13.11L546.278 13.28C546.205 13.6 546.072 13.9033 545.878 14.19C545.685 14.4767 545.422 14.7067 545.088 14.88C544.762 15.0533 544.365 15.14 543.898 15.14ZM549.23 15C548.95 15 548.733 14.9233 548.58 14.77C548.433 14.6167 548.36 14.4067 548.36 14.14V10.8H546.89V10.11H548.36V8.37H549.15V10.11H550.75V10.8H549.15V14.02C549.15 14.22 549.246 14.32 549.44 14.32H550.53V15H549.23ZM554.093 15.14C553.6 15.14 553.167 15.0367 552.793 14.83C552.42 14.6167 552.13 14.32 551.923 13.94C551.717 13.56 551.613 13.12 551.613 12.62V12.5C551.613 11.9933 551.717 11.55 551.923 11.17C552.13 10.79 552.417 10.4967 552.783 10.29C553.15 10.0767 553.57 9.97 554.043 9.97C554.503 9.97 554.91 10.07 555.263 10.27C555.617 10.4633 555.893 10.7433 556.093 11.11C556.293 11.4767 556.393 11.9067 556.393 12.4V12.76H552.403C552.423 13.2867 552.593 13.7 552.913 14C553.233 14.2933 553.633 14.44 554.113 14.44C554.533 14.44 554.857 14.3433 555.083 14.15C555.31 13.9567 555.483 13.7267 555.603 13.46L556.283 13.79C556.183 13.9967 556.043 14.2033 555.863 14.41C555.69 14.6167 555.46 14.79 555.173 14.93C554.893 15.07 554.533 15.14 554.093 15.14ZM552.413 12.11H555.593C555.567 11.6567 555.41 11.3033 555.123 11.05C554.843 10.7967 554.483 10.67 554.043 10.67C553.597 10.67 553.23 10.7967 552.943 11.05C552.657 11.3033 552.48 11.6567 552.413 12.11ZM557.771 15V10.11H558.541V10.71H558.681C558.768 10.4967 558.901 10.34 559.081 10.24C559.261 10.14 559.498 10.09 559.791 10.09H560.371V10.81H559.741C559.388 10.81 559.101 10.91 558.881 11.11C558.668 11.3033 558.561 11.6067 558.561 12.02V15H557.771ZM563.749 15V14.25H564.729V8.75H563.749V8H567.259C567.666 8 568.026 8.07333 568.339 8.22C568.659 8.36667 568.906 8.57333 569.079 8.84C569.259 9.1 569.349 9.40667 569.349 9.76V9.84C569.349 10.1667 569.286 10.4367 569.159 10.65C569.033 10.8567 568.883 11.02 568.709 11.14C568.536 11.2533 568.366 11.3367 568.199 11.39V11.53C568.366 11.57 568.539 11.65 568.719 11.77C568.899 11.8833 569.049 12.0467 569.169 12.26C569.296 12.4733 569.359 12.7433 569.359 13.07V13.17C569.359 13.55 569.266 13.88 569.079 14.16C568.899 14.4333 568.649 14.6433 568.329 14.79C568.016 14.93 567.656 15 567.249 15H563.749ZM565.569 14.24H567.159C567.599 14.24 567.936 14.1367 568.169 13.93C568.403 13.7233 568.519 13.4433 568.519 13.09V13C568.519 12.6467 568.403 12.3667 568.169 12.16C567.936 11.9533 567.599 11.85 567.159 11.85H565.569V14.24ZM565.569 11.09H567.189C567.589 11.09 567.909 10.99 568.149 10.79C568.389 10.5833 568.509 10.3133 568.509 9.98V9.88C568.509 9.54 568.389 9.27 568.149 9.07C567.916 8.86333 567.596 8.76 567.189 8.76H565.569V11.09ZM572.221 15.14C571.881 15.14 571.571 15.08 571.291 14.96C571.011 14.84 570.791 14.6667 570.631 14.44C570.471 14.2133 570.391 13.9367 570.391 13.61C570.391 13.2767 570.471 13.0033 570.631 12.79C570.791 12.57 571.011 12.4067 571.291 12.3C571.571 12.1867 571.884 12.13 572.231 12.13H573.881V11.77C573.881 11.4233 573.777 11.15 573.571 10.95C573.371 10.75 573.071 10.65 572.671 10.65C572.277 10.65 571.971 10.7467 571.751 10.94C571.531 11.1267 571.381 11.38 571.301 11.7L570.561 11.46C570.641 11.1867 570.767 10.94 570.941 10.72C571.114 10.4933 571.344 10.3133 571.631 10.18C571.924 10.04 572.274 9.97 572.681 9.97C573.307 9.97 573.794 10.1333 574.141 10.46C574.487 10.78 574.661 11.2333 574.661 11.82V14.03C574.661 14.23 574.754 14.33 574.941 14.33H575.391V15H574.701C574.481 15 574.304 14.94 574.171 14.82C574.037 14.6933 573.971 14.5267 573.971 14.32V14.27H573.851C573.777 14.3967 573.677 14.53 573.551 14.67C573.431 14.8033 573.264 14.9133 573.051 15C572.837 15.0933 572.561 15.14 572.221 15.14ZM572.311 14.46C572.777 14.46 573.154 14.3233 573.441 14.05C573.734 13.77 573.881 13.38 573.881 12.88V12.77H572.261C571.947 12.77 571.687 12.84 571.481 12.98C571.281 13.1133 571.181 13.3167 571.181 13.59C571.181 13.8633 571.284 14.0767 571.491 14.23C571.704 14.3833 571.977 14.46 572.311 14.46ZM577.95 15C577.67 15 577.454 14.9233 577.3 14.77C577.154 14.6167 577.08 14.4067 577.08 14.14V10.8H575.61V10.11H577.08V8.37H577.87V10.11H579.47V10.8H577.87V14.02C577.87 14.22 577.967 14.32 578.16 14.32H579.25V15H577.95ZM580.75 15V10.11H581.52V10.72H581.66C581.753 10.5467 581.907 10.3867 582.12 10.24C582.333 10.0933 582.633 10.02 583.02 10.02C583.4 10.02 583.707 10.1033 583.94 10.27C584.18 10.4367 584.353 10.64 584.46 10.88H584.6C584.713 10.64 584.883 10.4367 585.11 10.27C585.343 10.1033 585.667 10.02 586.08 10.02C586.407 10.02 586.693 10.0867 586.94 10.22C587.187 10.3533 587.38 10.5467 587.52 10.8C587.667 11.0467 587.74 11.3433 587.74 11.69V15H586.95V11.76C586.95 11.4333 586.853 11.1767 586.66 10.99C586.473 10.7967 586.21 10.7 585.87 10.7C585.51 10.7 585.213 10.8167 584.98 11.05C584.753 11.2833 584.64 11.62 584.64 12.06V15H583.85V11.76C583.85 11.4333 583.753 11.1767 583.56 10.99C583.373 10.7967 583.11 10.7 582.77 10.7C582.41 10.7 582.113 10.8167 581.88 11.05C581.653 11.2833 581.54 11.62 581.54 12.06V15H580.75ZM590.853 15.14C590.513 15.14 590.203 15.08 589.923 14.96C589.643 14.84 589.423 14.6667 589.263 14.44C589.103 14.2133 589.023 13.9367 589.023 13.61C589.023 13.2767 589.103 13.0033 589.263 12.79C589.423 12.57 589.643 12.4067 589.923 12.3C590.203 12.1867 590.517 12.13 590.863 12.13H592.513V11.77C592.513 11.4233 592.41 11.15 592.203 10.95C592.003 10.75 591.703 10.65 591.303 10.65C590.91 10.65 590.603 10.7467 590.383 10.94C590.163 11.1267 590.013 11.38 589.933 11.7L589.193 11.46C589.273 11.1867 589.4 10.94 589.573 10.72C589.747 10.4933 589.977 10.3133 590.263 10.18C590.557 10.04 590.907 9.97 591.313 9.97C591.94 9.97 592.427 10.1333 592.773 10.46C593.12 10.78 593.293 11.2333 593.293 11.82V14.03C593.293 14.23 593.387 14.33 593.573 14.33H594.023V15H593.333C593.113 15 592.937 14.94 592.803 14.82C592.67 14.6933 592.603 14.5267 592.603 14.32V14.27H592.483C592.41 14.3967 592.31 14.53 592.183 14.67C592.063 14.8033 591.897 14.9133 591.683 15C591.47 15.0933 591.193 15.14 590.853 15.14ZM590.943 14.46C591.41 14.46 591.787 14.3233 592.073 14.05C592.367 13.77 592.513 13.38 592.513 12.88V12.77H590.893C590.58 12.77 590.32 12.84 590.113 12.98C589.913 13.1133 589.813 13.3167 589.813 13.59C589.813 13.8633 589.917 14.0767 590.123 14.23C590.337 14.3833 590.61 14.46 590.943 14.46ZM595.105 15V10.11H595.875V10.94H596.015C596.122 10.7067 596.302 10.4967 596.555 10.31C596.815 10.1167 597.195 10.02 597.695 10.02C598.062 10.02 598.389 10.0967 598.675 10.25C598.969 10.4033 599.202 10.63 599.375 10.93C599.549 11.23 599.635 11.6 599.635 12.04V15H598.845V12.1C598.845 11.6133 598.722 11.26 598.475 11.04C598.235 10.82 597.909 10.71 597.495 10.71C597.022 10.71 596.635 10.8633 596.335 11.17C596.042 11.4767 595.895 11.9333 595.895 12.54V15H595.105ZM601.668 15.14C601.475 15.14 601.312 15.0767 601.178 14.95C601.052 14.8233 600.988 14.66 600.988 14.46C600.988 14.26 601.052 14.0967 601.178 13.97C601.312 13.8433 601.475 13.78 601.668 13.78C601.868 13.78 602.032 13.8433 602.158 13.97C602.285 14.0967 602.348 14.26 602.348 14.46C602.348 14.66 602.285 14.8233 602.158 14.95C602.032 15.0767 601.868 15.14 601.668 15.14Z" fill="#929292"/>
<defs>
<clipPath id="clip0_8_161">
<rect width="24" height="24" fill="white"/>
</clipPath>
</defs>
</svg>
